M48
; DRILL file {KiCad (6.0.9)} date Tue Nov 29 21:31:51 2022
; FORMAT={-:-/ absolute / metric / decimal}
; #@! TF.CreationDate,2022-11-29T21:31:51-05:00
; #@! TF.GenerationSoftware,Kicad,Pcbnew,(6.0.9)
; #@! TF.FileFunction,MixedPlating,1,2
FMAT,2
METRIC
; #@! TA.AperFunction,Plated,PTH,ViaDrill
T1C0.700
; #@! TA.AperFunction,Plated,PTH,ComponentDrill
T2C0.800
; #@! TA.AperFunction,Plated,PTH,ComponentDrill
T3C0.813
; #@! TA.AperFunction,Plated,PTH,ComponentDrill
T4C1.000
; #@! TA.AperFunction,Plated,PTH,ComponentDrill
T5C1.016
%
G90
G05
T1
X159.4Y-96.4
X163.4Y-67.2
X165.2Y-82.6
X174.8Y-58.7
X178.9Y-63.1
X186.4Y-63.8
X188.3Y-71.7
X188.5Y-91.1
X194.645Y-65.9
X196.645Y-63.0
X198.467Y-59.954
X200.8Y-57.9
T2
X167.297Y-54.204
X169.837Y-54.204
X172.377Y-54.204
X174.917Y-54.204
X176.441Y-102.464
X177.457Y-54.204
X178.981Y-102.464
X179.997Y-54.204
X181.521Y-102.464
X182.537Y-54.204
X184.061Y-102.464
X185.077Y-54.204
X186.601Y-102.464
X187.617Y-54.204
X189.141Y-102.464
X190.157Y-54.204
X191.681Y-102.464
X194.221Y-54.204
X194.221Y-102.464
X196.761Y-54.204
X199.301Y-54.204
X199.301Y-102.464
X201.841Y-54.204
X201.841Y-102.464
X204.381Y-54.204
X204.381Y-102.464
X206.921Y-54.204
X206.921Y-102.464
X209.461Y-54.204
X209.461Y-102.464
X212.001Y-54.204
X212.001Y-102.464
T3
X155.79Y-76.0
X158.97Y-81.9
X163.41Y-76.0
X168.6Y-85.1
X168.6Y-90.18
X168.7Y-69.46
X168.7Y-74.54
X173.58Y-67.78
X173.58Y-75.4
X173.69Y-83.69
X173.69Y-91.31
X176.12Y-67.78
X176.12Y-75.4
X176.23Y-83.69
X176.23Y-91.31
X178.66Y-67.78
X178.66Y-75.4
X178.77Y-83.69
X178.77Y-91.31
X181.2Y-67.78
X181.2Y-75.4
X181.31Y-83.69
X181.31Y-91.31
X183.74Y-67.78
X183.74Y-75.4
X186.28Y-67.78
X186.28Y-75.4
X188.82Y-67.78
X188.82Y-75.4
X200.36Y-85.6
X200.42Y-80.8
X200.62Y-74.7
X205.44Y-85.6
X205.5Y-80.8
X205.7Y-74.7
X210.0Y-82.4
X210.0Y-87.6
X210.1Y-76.3
X212.54Y-82.4
X212.54Y-87.6
X212.64Y-76.3
T4
X156.4Y-91.5
X156.43Y-81.9
X158.94Y-91.5
T5
X155.339Y-63.349
X155.339Y-69.851
X159.861Y-63.349
X159.861Y-69.851
T0
M30
